<svg width="24" height="25" viewBox="0 0 24 25" fill="none" xmlns="http://www.w3.org/2000/svg">
<path d="M11.9952 8.58094C16.9655 8.58094 20.9947 7.23788 20.9947 5.58112C20.9947 3.92437 16.9655 2.5813 11.9952 2.5813C7.02493 2.5813 2.99573 3.92437 2.99573 5.58112C2.99573 7.23788 7.02493 8.58094 11.9952 8.58094Z" stroke="white" stroke-width="1.99988" stroke-linecap="round" stroke-linejoin="round"/>
<path d="M2.99554 5.58105V19.5802C2.99554 20.3758 3.9437 21.1388 5.63143 21.7014C7.31915 22.264 9.6082 22.58 11.995 22.58C14.3818 22.58 16.6709 22.264 18.3586 21.7014C20.0463 21.1388 20.9945 20.3758 20.9945 19.5802V5.58105" stroke="white" stroke-width="1.99988" stroke-linecap="round" stroke-linejoin="round"/>
<path d="M2.99554 12.5806C2.99554 13.3762 3.9437 14.1392 5.63143 14.7018C7.31915 15.2643 9.6082 15.5804 11.995 15.5804C14.3818 15.5804 16.6709 15.2643 18.3586 14.7018C20.0463 14.1392 20.9945 13.3762 20.9945 12.5806" stroke="white" stroke-width="1.99988" stroke-linecap="round" stroke-linejoin="round"/>
</svg>
