<?xml version="1.0" encoding="UTF-8"?><svg id="Kommunevåpen_strek" xmlns="http://www.w3.org/2000/svg" viewBox="0 0 38.59 46.76"><path d="M20,41.28l-.21-.74s.05-.03,.08-.03l.02,.03c.03,.1,.03,.21,.11,.32,.03,.13,.08,.31,0,.42Z"/><path d="M11.3,37.03l-.16-.79-.93-.03,.19,.85,.9-.03Zm-.22-6.83c0-2.96-.03-5.88-.05-8.84,0-.65-.1-1.76-.05-2.5l-.03-.03-.58,.03c-.13,.13,0,.37-.06,.55,0,.77,0,1.53,.04,2.27,0,.48-.04,.98,0,1.45l.02,3.67-.11,.97,.11,4.56c0,.3-.08,1,.03,1.27,.02,.03,.05,.05,.05,.05h.58l.05-3.45Zm-.52,7.49l.52-.34-.63-.06,.11,.4Zm.74-14.77l.39-.63-.5-.56c.05,.43,.07,.82,.07,1.19h.04Zm-.37-4.37l-.21-.46c-.16,.06-.25,.27-.35,.4v.06l.08,.02,.48-.02Zm.31-16.6c-.13-.08-.31,.03-.47,0-.05,.29,.05,.69,.1,1,.03,0,.03,.03,.03,.03l.03-.03,.42-.08-.11-.92Zm-1.51,19.23l.32,.45,.03-.02v-.67l-.31,.19s-.04,.02-.04,.05ZM5.83,3.06l.21,.9h.03l.29-.11-.21-.84-.32,.05Zm.58,20.2l.16-.1-.53-.76-.21,.07s-.05,.03-.08,.08v.92h.03l.47-.03,.16-.18Zm-.53-1.1s-.05-.06-.1-.08c-.03,.05,0,.13-.03,.18h.03l.08-.05s.02-.02,.02-.05Zm-.18-1.85l.05,.66,.32-.21c.08-.08-.03-.16-.08-.24-.08-.07-.21-.18-.29-.21Zm.03-.5h.02l.77-.56-.16-.21-.63,.14v.63Zm1.1,6.85l.03-.71-1.08-.02v.71l1.05,.02Zm1.43,5.25l1.84-.02v-.66l-1.81-.06-.03,.74Zm-1.43-7.22v-.9c-.34,0-.68,.05-1.05,0l-.03,.9,.03,.02,1.05-.02Zm-.13-1.27s.03,0,.06-.03c0-.02-.03-.05-.08-.08l-.19,.16h.03s.03,.02,.05,0t.03-.05s.08,0,.1,0Zm.06-1.84l-.48-.64c-.18,.09-.4,.21-.53,.4v.29l.35,.42,.66-.47Zm.16,7.22l.02-.84-1.16,.05-.03,.79h1.17Zm.02-7.38l.74-.53s.03,0,.03-.02l-.42-.64-.77,.5-.03,.03,.45,.66Zm.14-18.97l-.16-.63-1.25,.31c-.07,.19,.06,.45,.08,.66l1.33-.34Zm2.79,17.1l.21,.32,.02-.04-.05-.42s-.02,0-.02,0c-.08,.03-.16,.05-.16,.14Zm-3.01,13.29v-.67h-1.08v.67h1.08ZM9.4,6.3l.12,.67,.03,.02,2.11-.43-.1-.6c-.69,.05-1.43,.18-2.16,.34Zm-3.04,14.25l.74-.51c-.08-.21-.27-.42-.42-.58l-.71,.51s-.03,.02-.03,.05l.4,.55,.02-.02Zm1.03,1.87l-.47-.63-.64,.45c.11,.26,.32,.53,.55,.76l.03-.02,.61-.46s0-.02-.02-.05c0-.02-.04-.02-.06-.05Zm-.5-3.4c-.06-.05-.13-.03-.21,0l.02,.08,.03,.03,.16-.11Zm5.25,16.4l-.45-1.5-.95-.08,.45,1.55,.95,.03Zm-4.94-6.62h2.88l.02-.79-.02-.03-2.88-.02v.84Zm-.26,1.35h-1.16l-.03,.79h1.14l.05-.79Zm1.05,8.46l-.18-.6-1.11-4.22h-.89c.07,1.16,.39,2.48,1,3.43,.27,.42,.6,.81,.95,1.18,.05,.11,.16,.13,.23,.21Zm.21-11.68l.04,.79h1.81l.03-.77-1.88-.02ZM1.3,4.54l-.37,.13,.47,.71,.27-.1-.37-.74Zm6.59,.13c0-.24-.08-.55-.18-.8l-2.04,.51,.21,.74,2.01-.45Zm-2.11,27.27l2.16-.03c.11-.21,0-.47,.03-.68l-2.22-.08v.79h.03Zm2.16-5.01h-2.16l-.03,.79h2.19v-.79Zm-.02-24.61l-.21-.74-.48,.13c-.05,.21,.06,.45,.11,.69h.02l.56-.08Zm2.13,20.13l-.53,.42c.09,.11,.19,.21,.14,.34l.05,.02,.37-.02v-.74s0-.02-.03-.02Zm-2.13,3.21l.07-.69-2.21-.05-.03,.74h2.17Zm.11-6.32c-.09-.16-.19-.32-.37-.48l-.37,.06c-.06,.02-.03,.15-.11,.18-.14,.08-.24,.1-.32,.24l.43,.53,.74-.53Zm-.09,9.72h-2.21l.02,.82,1.03,.03h1.14c.13-.18,0-.5,.05-.74,0-.05-.03-.11-.03-.11Zm.19-25.58l-.19-.92-1.55,.37,.21,.87h.02l1.51-.32Zm.16,26.43h1.79l.02-.79-1.86-.03,.05,.82Zm1.76,.26c-.95-.08-1.92-.05-2.9-.02l.03,.79h2.9l-.03-.77Zm-1.37,6.12l-.97,.03,.21,.92,1-.02-.24-.93Zm2.62-15.11l.58-.42s.02-.03,.05-.08c-.14-.23-.3-.48-.53-.69h-.14c-.02,.4-.12,.79-.05,1.19h.09Zm-3.15-12.95l-.12-.66c-.67,.13-1.46,.31-2.2,.5t-.05,.02l.21,.64,2.16-.5Zm2.35,25.66c-.29-.05-.66-.05-1-.05,.11,.74,.37,1.45,.58,2.16l.95-.03-.53-2.08Zm-.4-7.96h-2.97v.73h2.92l.05-.73Zm-2.07-2.56c0-.21-.25-.39-.35-.6-.02,0-.02-.03-.02-.03-.19,.03-.3,.21-.48,.31-.05,.06-.1,.08-.16,.13l.11,.21h.02l.88-.02Zm.42,9.49l1.68-.02v-.69l-3,.02v.69h1.32Zm.16,3.16l-.53-2.21h-1l.47,2.21h1.06ZM1.64,5.8c.15,.16,.18,.34,.34,.5v-.02l1.56-.51s0-.02,.02-.05l-.29-.63-1.66,.56c-.03,.05,0,.1,.03,.15Zm7.39,30.78c.28,0,.65,.03,.95,0l-.21-.82h-.98l.24,.82Zm-.88-31.99c.61,0,1.51-.26,2.09-.37,0,0,.02-.03,.02-.05l-.13-.74c-.66,0-1.42,.23-2.1,.37-.06,.11,.02,.21,.02,.34,.08,.16,.05,.29,.1,.45Zm-4.29,1.08l1.74-.48-.19-.7c-.61,.07-1.24,.31-1.85,.49l.27,.69h.03Zm4.8,14.51l-.46-.63-.75,.53,.42,.63h.02c.29-.14,.53-.35,.77-.53Zm-.4-.98l.58-.44-.81,.07-.04,.03,.25,.34h.02ZM4.51,7.49c0,.21,.11,.5,.24,.66h.03l1.95-.53-.16-.69-2.06,.56Zm-.58,1.76l1.77-.47-.18-.55c-.66,.11-1.27,.37-1.88,.6l.29,.42Zm4.49,12.59l-.55-.76-.74,.55,.55,.77v-.03l.74-.53Zm0-13.71l.03,.05h.02l2.16-.4c.09-.18-.07-.5-.1-.74-.71,.19-1.43,.29-2.22,.42l.11,.67ZM1.56,4.43l.37,.74,1.74-.56-.34-.74-1.77,.56Zm2.87,3.82c-.02-.12-.13-.6-.26-.65l-1.21,.28,.47,.67,1-.3Zm2.61,16.38c.99,0,2.09,.02,3.04-.03v-1.07c-.89,.17-1.95,.12-2.9,.23h-.05l-.09,.87ZM1.85,3.4l.21,.53,1.16-.37-.18-.58-1.19,.42Zm7.73,21.55l-1.34,.05-.04,.63,1.88-.02v-.68s.01,0,.02-.01h-.02v-.11c-.09,.06-.06,.1,0,.11h0c-.12,.03-.46,.07-.5,.03Zm-.18-6.25c.05,.24,.26,.4,.42,.61l.02-.03,.19-.1,.02-.21c-.02-.05-.1,0-.13-.03-.05-.02-.1-.06-.1-.11l.02-.18-.44,.05Zm-3.65,14.82l4.17,.13,.21-.02v-.47l-4.35-.14-.03,.5Zm3.91,1.92l-.47-1.6-.85-.03,.34,1.63h.98Zm-.42-28.4l-.16-.71-2.22,.53,.13,.65,.03,.04,2.22-.51Zm-.56,32.1l.66-.61s-.13-.05-.13-.13c-.06-.31-.13-.63-.24-.9l-.98-.02,.37,1.48,.32,.18Zm.61-16.09l-.26,.21h.02l.37-.03-.13-.18Zm-.16-.21c-.08-.15-.21-.34-.31-.52-.11-.11-.14-.24-.25-.29l-.76,.52,.55,.76h.25c.1-.23,.36-.28,.52-.47Zm.32-1.48c-.21,.19-.48,.32-.66,.51,.13,.29,.36,.53,.58,.79h.03l.68-.56-.53-.74s-.08-.02-.1,0Zm.32-1.65l-.74,.52,.52,.74h.06c.16-.13,.34-.21,.47-.4v-.26c.02-.27-.21-.39-.26-.58-.03-.02-.05-.02-.05-.02ZM12.03,1.53l-.08-.63c-.42,0-.87,.13-1.32,.21l.05,.6s.04,0,.04,.03l1.28-.21h.03ZM.82,4.43l1-.34-.24-.56c-.37,.08-.79,.22-1.05,.43l.26,.47h.03Zm8.79,15.07c-.14-.22-.24-.46-.48-.64l-.74,.55,.43,.61h.02l.77-.52Zm-.24,1.63l-.55-.74-.77,.53,.58,.76h.03l.71-.55Zm-.29,15.72l.39,1.58,.03-.03,.79-.58-.24-1-.97,.03Zm13.31-9.84c-.02,.21-.02,.39-.02,.6h.02l.05-.13,.11-.03c.11-.23,.08-.5,.05-.73-.05-.06-.05,.02-.07,.05l.02-.24s.03,0,.03-.03c.02-.05,0-.13-.03-.18v-.29c-.13,.31,0,.69-.16,.98Zm.37,6.78l-.42-2.88,.05,2.88h.37Zm-.32-8.05s-.1-.11-.15-.11v.64l.15-.53Zm-.18-1.67c-.05,.14,.06,.27,.13,.4,.03,.03,.05,.03,.11,.08l.03-.02v-.03l-.19-.39s-.05-.04-.08-.04Zm-.05-23.65l.02,.82h.46l.05-.71-.53-.11Zm-.21,33.63c-.16,.39-.23,.92-.32,1.37,.16,.11,.43,.06,.64,.11h.12c.19-.45,.3-1,.41-1.48h-.85Zm-.34-5.41l.39,.05,.03-.73c-.1-.11-.29-.03-.4-.09l-.02,.77Zm.06,3.53c-.09,.22-.06,.53,0,.77h.36c.05-.21,.03-.5,0-.77h-.36Zm0-2.21c-.09,.21-.09,.53-.04,.79h.37c.08-.23,0-.53,.03-.79h-.36Zm-.06-6.15c-.08,.26-.05,.53,0,.79,0,.05,0,0,.02,.05h.14l.21-.58v-.26h-.37Zm-.03,2.12c-.02,.18,0,.5,0,.71,.03,.02,.05,.02,.05,.02l.32,.03s.03,.03,.05,0l-.02-.74-.4-.02Zm-.39-24.51v.95l1.08,.08h.28l.09-.92c-.46-.11-.95-.11-1.45-.11Zm-.1,4.01c-.06,.16-.06,.4-.04,.58l1.56,.11h.24c.1-.19,.02-.37,.07-.56,0-.02-.02-.02-.02-.02l-1.81-.11Zm-.16,14.17s0,.02,.02,.02h.51c.07-.1,0-.28,.02-.44,0-.03-.02-.03-.08-.03-.19,.08-.35,.16-.42,.35q-.03,.05-.05,.1Zm-.14,10.33v.82h.51c.1-.21,.02-.5,.05-.76-.16-.08-.4,0-.56-.06Zm0,3.3v.58l.05,.03,1.22-.03v-.6c-.13-.09-.29,0-.43-.03-.28,.08-.58,.03-.84,.05Zm-.02-1.03v.69s0,.05,.05,.05l.55-.03-.02-.71c-.16-.1-.4,0-.58,0Zm0-1.15l.02,.89,.03-.03,1.21-.02c.08-.27-.03-.56,0-.82-.4-.08-.84-.06-1.26-.02Zm0-2.09v.68c.13,.09,.37,0,.55,.03,.24,0,.47,0,.68,.03h.03l-.03-.72-1.23-.02Zm0-.24l.55-.03,.03-.73s0-.06-.03-.06h-.55v.82Zm-.03-6.17h.5c.11-.15,0-.45,.03-.66,0-.02,0,0-.03-.02h-.47l-.03,.68Zm0,1c.42,.1,.89-.11,1.32,.08l.42-.79c-.53-.13-1.11-.02-1.66-.05q-.05,0-.08,.03v.73Zm0,.26v.79c.08,.09,.26,0,.4,.05,.02-.02,.07,0,.1,0,.13-.23,0-.54,.06-.81-.16-.08-.37,0-.56-.03Zm0,2.85h.56l.05-.68c-.16-.08-.4-.08-.61-.05v.73Zm.03,.27c-.05,.21-.03,.47,0,.68v.03h1.21c.08-.21,.02-.45,.02-.66-.39-.08-.81-.03-1.23-.05Zm-.08-6.01l.05,.6c.37,.11,.79,.03,1.21,.09l.18-.03,.03-.69c-.47,0-1-.02-1.47,.03Zm.08,4c-.08,.19,0,.5-.03,.71,.37,.13,.79,0,1.19,.11l.02-.03,.05-.21-.18-.58h-1.05Zm-.19-23.5l-.02,.9s.07,.03,.1,.05h.22c.12-.29,.02-.63,.05-.95-.09-.05-.24-.02-.35,0Zm0-.31l1.32,.05,.05-.66c-.39-.16-.9-.13-1.32-.11l-.05,.72Zm-.05,34.26l.26,.07h.51c.16-.39,.23-.86,.33-1.28v-.09l-.79,.03c-.15,.24-.15,.55-.23,.85-.05,.13-.08,.26-.08,.42Zm-.76-28.54c.02,.1,0,.16,.05,.24l1.74,.07h.16c.1-.17,.02-.47,.05-.73-.03-.06,.02-.06,.02-.11-.02-.02-.05-.02-.07-.05t-.05,.03l-1.85-.05c-.08,.18,.02,.39-.05,.6Zm0-4.22l-.03,.84c.61,.08,1.31,.03,1.95,.11h.16c.1-.24,0-.55,.08-.82-.69-.16-1.46-.08-2.16-.13Zm-.46,26.14c-.07,.95-.05,1.95-.07,2.93,.21,.13,.5,0,.74,.1h.16c-.19-1-.53-2.05-.83-3.03Zm-.6-23.37c-.05,.18,0,.42-.03,.6,0,.03,.03,.06,.05,.06h2.01c.1-.13,.05-.39,.05-.58-.02,0-.02-.03-.02-.03-.59-.07-1.21-.04-1.83-.05h-.23Zm-.05,26.9c.09,.07,.18,.11,.28,.14,.11,.03,.21,.05,.32,.05,.3-.05,.42-.05,.63-.21l-.95,.02h-.28Zm-.16-.32s-.1,.09-.08,.11l.52,.02h.27s.87-.04,.87-.04c-.05,0-.08-.11-.08-.11-.31,0-.7,.01-1.06,.02h-.44Zm.44-2.75l-.73,2.57h.03l.7-.08h.04c.07-.95,.1-1.9,.07-2.87l-.11,.38Zm-1.21-22.96c-.08,.24,0,.53,0,.79,0,.03,0,.05,.03,.08h.02l1.16-.02h.53c.11-.24,.06-.56,.03-.85h-1.77Zm-.1-3.61c-.08,.26-.03,.58-.03,.87h.03l1.31-.04,.53-.02v-.81h-.53s-.91-.03-.91-.03l-.4,.03Zm-.48,30.85c0,.09-.02,.11,0,.19,.03,.02,.05,.06,.08,.06l.32-.06c.05-.24-.11-.47-.05-.77-.08-.47-.11-.91-.21-1.37-.03-.05-.09-.07-.14-.13-.07,.13,0,.32,0,.45,.03,.47,0,.95,.08,1.4-.05,.07-.05,.18-.08,.23Zm-.23-14.68c-.11,.34-.06,.79-.06,1.21,.03,.18-.02,.34,0,.5,.03,.51-.08,1.11,.22,1.51l.42,.68c.05-1.29,.02-2.58-.03-3.88l-.55-.02Zm-.14-.26h.03l.53-.06c-.03-.19-.14-.31-.26-.45-.16,.11-.22,.32-.3,.51Zm.51,11.81c.05,.23,.07,.5,.13,.74,.02,.37,.17,.72,.18,1.09l-.03-3.23c-.1,.45-.23,.92-.28,1.4Zm-.43-4.86c-.02,.05-.05,.11-.08,.19,0,.02,.03,.02,.08,.05l.08,.21c-.1,.26-.08,.54-.05,.85,.1-.16,.13-.35,.16-.53,.1-.58,0-1.25,.34-1.74,.26-.42,.11-.98,.13-1.45l-.58-.13c-.08,.1-.02,.26-.05,.39,.34,.21,.19,.73,.42,1,.03,.08,.03,.1,.03,.16-.03,.05-.05,.08-.11,.08l-.18,.29c0,.24-.13,.4-.19,.63Zm-.15,2.48l.05,.06c-.05,.28,.1,.55,.02,.86,.08,.27,.16,.53,.3,.77h.02c.19-.77,.37-1.53,.5-2.29l.11-.51c.32-.23,.29-.71,.42-1.11,0-.23,.11-.47,.05-.71h-.05l-.13,.48s.03,.05,.03,.05l-.06,.05-.05,.08s-.03,0-.03-.02l.05-.57-.1,.36s-.06,.02-.08,.02c-.08-.23,.11-.5,.05-.79l-.13,.4s-.05,0-.08,.02l-.05,.32s-.03,.03-.05,.03c-.08-.03-.06-.16-.06-.25,.06-.12,.13-.23,.08-.33-.26,.42-.08,.97-.23,1.44-.06,.4-.24,.72-.37,1.06-.06,.03-.11,.05-.14,.08-.02,.05-.05,.13-.05,.18l-.02,.32Zm.97,6.07l-1.03-.08c.03,.47,.29,.98,.32,1.42h.02l.9-.02-.21-1.32Zm-1.27-28.59l.08,.66,1.93-.11v-.61c-.66-.02-1.32,0-2.01,.06Zm1.24-4.06c-.15-.06-.39,.02-.6,0l.03,.97s.47-.02,.57-.02v-.95Zm-1.05,30.33c-.19,.66-.16,1.32-.34,1.97l.36,.04h.24c.24-.83,.03-1.72,.16-2.57-.03-.12-.03-.23-.05-.34-.05-.03-.08-.13-.08-.21,.05-.05,.03-.13,.03-.15,0-.04,0-.06-.03-.06,.03-.1,.03-.21-.05-.26-.03,0-.03,.02-.03,.02-.08,.3,0,.58-.1,.88,0,.23-.06,.44-.11,.68Zm-.4-30.57l1.43-.03-.03-.71-1.42,.03v.71h.02Zm.42,25.16l-.63,1.77,.05,.13h.03c.24-.24,.42-.5,.53-.82,.05-.37,.02-.74,.02-1.08ZM15.94,.5l-.35-.03,.03,.74h.34c.08-.21,0-.47-.02-.71Zm-.4,33.45c.03,.52,.24,1.07,.4,1.6h.02l.85-.13-.43-1.45-.84-.02Zm-.05-27.54l.05,.79s.03,0,.03,.03l1.95-.11-.03-.84-2,.13Zm-.16,27.29l.21,.04,.37-.04c.18-.26,.29-.68,.37-1.02,.26-.98,.42-1.98,.48-2.93-.03,0,0-.02-.03,0-.21,.45-.21,1.08-.48,1.56-.18,.58-.45,1.11-.63,1.63-.13,.22-.24,.48-.32,.74,0,0,0,.02,.03,.02Zm-.18-6.13l.18,1.47h.03l.31-.4c-.16-.37-.26-.76-.52-1.07ZM16.78,1.37c-.13,.03-1.13,.05-1.13,.08v.98s.02,0,.02,.02l1.16-.08-.05-1Zm-1.82,1.37l.05,.87s.03,0,.03,.03l2.35-.13v-.82c-.79-.05-1.64,.02-2.43,.05Zm.55,12.98l-.71,.16s.03,.05,.03,.08l.45,.11s.13,.1,.18,.07c.05-.05,.08-.31,.05-.42Zm-1.05,18.2l.37,1.84,.82-.16-.4-1.65-.79-.03Zm1.03-6.15l.31,.71s.03,0,.03,.03l.13-.13c-.02-.21-.21-.29-.31-.45-.08-.06-.11-.11-.16-.16Zm-.74-10.89c.05-.23-.08-.55-.16-.81-.02-.03-.02,.07-.05,.07,.03,.27-.16,.58,0,.79h.03l.18-.05Zm-.45-1.85c.08,.22,.18,.43,.24,.64l.03,.05s.07-.02,.1-.05l.08-.74s0-.05-.03-.05l-.39-.03c-.06,.03-.03,.13-.03,.18Zm.03-9.44c-.06,.18-.03,.45,0,.69h.02l1.82-.16c.16-.16,0-.42,.06-.63v-.03l-1.9,.13Zm.42,23.68c-.11,.4-.29,.69-.48,1.01h.03c.13-.06,.24-.24,.42-.29,.35-.32,.56-.72,.45-1.22-.02-.08,0-.13-.02-.18-.03-.05-.08,0-.14,0-.15,.18-.15,.5-.26,.68Zm-.61-1.74c.06,.11,.21,.16,.37,.19l-.16-.71c0-.06,.08-.08,.11-.06h.08l.16,.82,.26,.19,.03-.03c.02-.4-.19-.82-.37-1.11,0-.02,0-.05,.02-.08l.06-.02c.23,.23,.37,.6,.74,.76,.13,.08,.15,.18,.23,.26l.61-1.68s-.05-.06-.11-.08c-.02-.05-.05-.13-.02-.22,.05-.1,.21-.07,.29-.18,.1-.29,.18-.58,.29-.89,.05-.25,.18-.48,.1-.69-.02-.21-.18-.35-.29-.45-.23-.13-.5-.11-.68,.08-.16,.18-.19,.42-.16,.63,.05,.18,.18,.24,.34,.32l.24-.05v-.03c-.16-.03-.24-.11-.32-.24,0-.08,0-.15,.03-.26,.05-.08,.18-.14,.29-.14,.16,.06,.21,.21,.26,.32,.08,.11,0,.24,.06,.35-.06,.16-.19,.28-.35,.37-.21,.07-.47,.05-.6-.09-.27-.21-.37-.47-.4-.79,.03-.28,.16-.47,.37-.65,.13-.06,.24-.16,.34-.26,.11,0,.21-.03,.32-.06,.13,0,.24,.03,.34,.03,.03,0,.05-.03,.05-.05v-.14c-.81-.15-1.63-.18-2.45-.12,.21,.28,.53,.6,.45,1.04-.1,.26,.08,.48-.03,.74,.03,.21,.19,.32,.24,.5l.13,.37c0,.08-.05,.11-.13,.11s-.13,.02-.18,.02l-.06,.58-.1,.37-.11,.14s-.1,.02-.18,.02c-.16,.24,.02,.53-.03,.77l-.08,.1Zm-.47,8.1l.16,.43,.02-.06,.85-.29-.03-.05-1-.03Zm-.13-19.62s-.03,.13,0,.13l.68-.13,.11-.05-.11-.13-.63-.06-.03,.03-.02,.21Zm-.03,2.4l-.03,.08,.24,.29,.03-.02,.23-.46c-.1-.02-.29-.02-.39,.04t-.08,.07Zm-.21,15.54l.34,1.47,.9,.02-.37-1.52-.87,.03Zm-.03-27.28l.11,.74,1.9-.18-.03-.79-1.98,.23Zm1.4-3.88l-1.82,.19,.08,.82h.02l1.77-.16c.06-.24-.02-.58-.05-.85Zm-1.85,22.37s-.05,.18,0,.26c.06,.08,.13,.11,.19,.19l.15,.02,.06,.08-.08,.1-.05,.09c.21,.16,.18,.5,.53,.53,.07,.02,.13,.02,.21,.05h.34s.08,0,.13-.03t.03-.05l.05-.03,.08-.26-.26-.05s-.09-.06-.09-.08l.03-.08,.29-.03c.08-.08,.08-.24,.03-.34-.03-.03-.03-.05-.05-.08,0-.03,.02-.03,.02-.05l.32-.08-.29-.72c-.13-.05-.26,.05-.4,.05-.1,.11-.23,.09-.29,.14-.05,0-.08-.03-.1-.08,0-.06,.05-.11,.13-.13,.18-.08,.4-.14,.61-.19v-.32c-.14-.1-.35,.04-.53,.06-.16,.1-.4,.16-.58,.24l-.08,.42-.08,.02-.08,.37-.05,.03-.13-.08s-.03,0-.06,.03Zm-.1,1l-.05,.37c.39,.45,.81,.74,1.34,.98l-.08-.71-.71-.37-.24-.4s-.03,.05-.08,.08c-.05,0-.02-.08-.05-.11-.03-.05-.11,0-.13,.03-.03,.03-.03,.08-.03,.1l.03,.03Zm.71,9.92l-.82,.08c-.08,.05,.06,.24,.08,.32,.1,0,.63-.35,.74-.4Zm-.82-17.04c.08,.27,.29,.51,.5,.74h.03l.02-.02,.4-.66-.34-.48c-.21,.05-.4,.3-.61,.42Zm.06-15.19l-.11-.82-2.16,.32,.13,.82h.03l2.11-.32Zm.34,2.82c-.71,.05-1.45,.16-2.17,.3,0,.23,.03,.52,.11,.75h.03l2.08-.26s0,0,.03-.02l-.08-.77Zm.97-1c-.68,0-1.4,.1-2.1,.24l.05,.65h.02l2.09-.26-.06-.63Zm-1.52,21.65q-.06,0-.06,.03c.64,.52,1.4,.95,2.32,1.05h.03s.05,0,0-.05c-.34-.16-.74-.18-1.08-.39-.16-.03-.24-.14-.42-.16-.27-.16-.58-.29-.79-.48Zm.42,5.04c-.16,.32-.27,.61-.37,.9,.07,.16-.09,.26,0,.39l.81,.03,1.32,.02,.29-.02c.43-.82,.87-1.63,1.16-2.58,.27-.58,.37-1.22,.58-1.74v-.24s0-.06-.02-.06l-.11-.74-.02-.1c-.4,.26-.74,.66-1.01,1.03-.05,.13-.07,.26-.18,.31-.16,.29-.21,.66-.32,1.01-.05,.34-.05,.69-.13,1.02,0,.06-.08,.03-.1,0-.06-.44,.08-.97,.13-1.44h-.05c-.06,.02-.06,.1-.08,.13t-.06,.05c-.08,.45-.39,.79-.58,1.21-.16,.35-.31,.72-.5,1.04,0,.05-.02,.07-.02,.1l-.08,.05s-.06-.03-.06-.05c.24-.79,.72-1.45,.98-2.21,0,0-.03-.04-.05-.04l-.43,.37-.02,.09c-.03,.05-.11,.05-.11,.1,0,.02-.02,.06-.02,.08-.19,.13-.27,.37-.45,.5-.16,.29-.37,.5-.5,.79Zm-.51-8.5s.05-.05,.11-.07c.03,0,.03-.03,.05-.05,.42-.19,.85-.4,1.03-.85v-.05c-.45-.02-.92,.11-1.37,.16-.31,.08-.63,.16-.89,.26-.04,.02-.06,.02-.06,.02l.02,.11,.04,.61,.02-.03c.03-.05,.1-.11,.21-.08,.29,.08,.53,0,.84-.03Zm-.02-3.08c0,.06,.02,.11,.11,.16t.05-.02l.21-.4-.37,.26ZM12.88,1.69l-1.32,.15c-.08,.29,0,.66,.07,.98t.03,.03l1.27-.16c.13-.32-.05-.69-.05-1Zm.18,32.28l-1.06-.05,.51,2,1.03,.03-.48-1.98ZM12.27,.84c-.06,.19-.03,.42,.05,.63l.03,.03,.5-.08-.11-.63-.47,.05Zm.42,31.58c-.23,.1-.48,.39-.69,.6-.02,.03-.02,.08-.05,.08l-.39,.32s-.03,.07,0,.1l-.05,.08s.05,.03,.07,.05h.66c0-.23,.16-.53,.27-.76,.02-.21,.13-.31,.18-.47Zm-.81-13.11c.1-.13,.26-.16,.33-.29l-.33-.5-.53,.08-.09,.21c0,.26-.05,.58,.19,.76,.16-.02,.27-.18,.43-.26Zm.54,17.3l-.23-.87h-.93l.35,1.27h.02l.79-.4Zm-.63-11.59c.19-.23,.48-.31,.69-.52,.61-.32,1.21-.64,1.9-.82,.05-.13,0-.29-.08-.42-.08-.08-.13-.18-.21-.23-.4,.23-.69,.65-1.11,.81-.16,.11-.31,.11-.42,.18-.16,.05-.32,.05-.45,.16-.21,0-.39,.03-.6,0h-.03c-.03,.16,.08,.37,.13,.53,.13,.08,.08,.24,.16,.31h.02Zm.37-4.5l.74-.55c-.13-.26-.32-.53-.53-.74-.26,.21-.52,.37-.76,.6,.16,.25,.32,.51,.55,.69Zm.16,.74l-.18-.29c-.11,0-.16,.11-.24,.13-.16,.16-.34,.21-.48,.4l.4,.53h.06l.44-.77Zm-.16,4.22l.11,.28,.19,.11h.05l.07-.06,.11,.04s.08,0,.1-.06c-.02-.1-.12-.16-.12-.29-.11-.16-.16-.34-.09-.53,.09-.16,.21-.18,.37-.23l.06-.14,.08-.05s.02-.05,0-.05c-.4,.15-.77,.34-1.09,.63,.03,.08,.09,.14,.14,.19l.02,.16Zm.05,.6c-.21-.29-.33-.71-.63-.95-.1-.13-.21-.29-.26-.44-.06,.44-.06,1-.02,1.47l.02,1.85h.03l.07-.03c.19-.18,.27-.45,.46-.66h.05l-.03-.13s-.02-.03-.05-.03c-.16-.26-.22-.63-.13-.89,.1-.14,.31-.14,.47-.14,0-.02,.02-.02,.02-.05Zm1.01,2.16c-.4-.23-.82-.39-1.11-.76-.21,.13-.23,.37-.39,.53-.09,.18-.16,.39-.4,.44v.77s0,.03,.03,.03c.02-.21,.13-.35,.21-.5,.02-.06,.05-.08,.1-.11l.08,.03c-.08,.29-.26,.66-.32,1,.3-.29,.4-.69,.74-.98,.03-.05,.05-.07,.11-.1h.05s.05-.11,.14-.11c0,0,.02,0,.02,.03l-.27,.39c-.36,.43-.58,.9-.81,1.38-.03,.03-.03,.05-.05,.08l-.03,.5c.05,.03,.1-.11,.13-.16,.21-.5,.58-.9,.85-1.34,.12-.11,.21-.22,.28-.32,0-.03,.03-.03,.06-.03l.13-.08,.02,.03,.03,.02s-.03,.06-.03,.06c0,.02-.02,.02-.05,.02-.23,.32-.37,.64-.63,.9-.26,.42-.55,.82-.71,1.27-.03,.08-.08,.08-.08,.13l.03,.16c.42-.35,.79-.95,1.32-1.24,.05-.06,.1-.13,.15-.19,.4-.34,.69-.66,.87-1.05l.24-.11c0,.24-.24,.43-.34,.63-.08,.11-.19,.19-.27,.27-.13,.26-.5,.48-.65,.71-.19,.14-.3,.32-.48,.42-.16,.21-.4,.32-.5,.53l-.37,.4,.03,.39,.02-.02c.19-.14,.4-.32,.61-.45,1.03-1.01,1.98-1.9,2.35-3.22-.24-.08-.48-.11-.74-.21-.16-.03-.21-.11-.37-.14Zm-1.01-1.34c.37,.26,.74,.53,1.11,.74,.37,.13,.74,.37,1.14,.42,.13,.03,.21,.08,.32,.11l.1-.06s.02,0,.03,.01t.02,.02l.08,.13v-.03s0-.07-.02-.07l-.08-.05-.16-.11h-.13s-.03-.05-.05-.05c-.88-.35-1.64-.8-2.3-1.56-.13-.06-.24-.03-.34,.03v.05c.07,.16,.21,.26,.28,.42Zm-.02-8.44c0,.14,.13,.27,.27,.4l.63-.47s0-.03-.03-.03l-.87,.1Zm.29,3.09c-.24,.42-.5,.79-.69,1.24v.03c.21,0,.42-.05,.61-.11,1.61-.26,3.19-.29,4.75,0-.77-1.58-1.69-3.09-2.56-4.62,0-.02-.02-.05-.02-.05h-.06c-.08,.11-.16,.24-.24,.37-.6,1.05-1.18,2.11-1.79,3.14Zm1.32,8.57c-.64,.93-1.59,1.74-2.45,2.37,0,.26-.05,.56,.02,.82l.03-.03c.39-.28,.71-.7,1.11-1.08,.05-.03,.05-.08,.07-.08,.27-.34,.64-.71,.9-1.05,.42-.58,.79-1.19,1.06-1.95,.03-.19,.13-.35,.18-.5l-.18,.02c-.06,.19-.08,.4-.21,.53-.16,.34-.35,.63-.53,.95ZM37.96,3.91l-.58-.16-.24,.55,.45,.19c.18-.14,.23-.37,.37-.53v-.05Zm-.79-.32c-.37-.21-.79-.37-1.25-.42-.12,.15-.23,.39-.28,.6l1.16,.42h.02l.14-.1,.21-.5Zm-.98,.63l-.45,.9,1.08,.37c.09,.02,.14,0,.19-.06,.18-.26,.34-.45,.45-.73-.38-.19-.85-.35-1.27-.48Zm.53,1.55c-.55-.18-1.13-.44-1.71-.55l-.25,.58,.03,.11,1.48,.53s.02,0,.06-.03c.1-.21,.31-.4,.39-.64Zm-1.19-1.76c-.15,.27-.31,.58-.4,.9l.35,.16s0-.03,.02-.06l.42-.87-.39-.13Zm-1.66,4.33l-.23,.6,.68,.21c.18-.11,.26-.32,.39-.48,0-.02,0-.05,.03-.05-.21-.18-.56-.18-.82-.31t-.05,.03Zm1.29-.37c-.45-.19-1.56-.67-2.08-.67l-.16,.48,1.95,.58h.03l.29-.34s0-.03-.03-.05Zm-.42-2.85c-.56-.24-1.24-.42-1.84-.58l-.14,.74,1.69,.52h.03c.1-.18,.21-.42,.26-.68Zm-3.09,22.78c-.1,.21-.02,.48-.05,.72l.24,.05,.74-.03,.02-.68c-.31-.11-.63-.03-.95-.06Zm0,4.2c-.1,.21,0,.44-.02,.69,.02,.05,.81,.02,.95,.02l.02-.71c-.21,0-.79-.05-.95,0Zm-.07-7.5l.84,.05,.16-.05,.02-.84h-1.05l.03,.84Zm0-2.13c.34,0,.68,.05,1-.05l.02-.63c-.34-.06-.71-.03-1.05-.03l.03,.71Zm0,4.14s.02,.05,.07,.05h.93l.02-.76h-1c-.11,.21,0,.47-.02,.71Zm.07,3.3c-.07,.08-.07,.82-.05,.82l.98-.03,.02-.77-.95-.02Zm.06-22.19c-.11,.22-.16,.48-.16,.72l1.79,.45s.03-.03,.05-.03l.21-.61c-.6-.21-1.26-.42-1.89-.53Zm-.35,30.16l.03-.03c.19-.13,.32-.32,.45-.5,.66-1.03,.84-2.49,.76-3.67h-.29c-.34,1.37-.66,2.8-.95,4.2Zm.19-35.03l-.27,.92,.88,.26h.05c.13-.28,.21-.58,.29-.89-.27-.16-.64-.24-.95-.29Zm-.72,32.47h.85c.18-.46,.24-1,.37-1.48-.03-.08,.02-.1,0-.16l-.82,.02c-.24,.48-.29,1.06-.42,1.59l.02,.03Zm-.05-33.71c-.1,.16-.16,.5-.18,.74l1.84,.5h.09l.21-.72-1.96-.52Zm-.16,5.09l-.13,.48c.64,.23,1.4,.33,2.11,.54,0,0,.03,0,.05-.02l.16-.5c-.68-.27-1.47-.37-2.19-.5Zm-.07,29.7s.02,.03,.02,.03c.24,.1,.58-.06,.85,.05h.02l.21-.88-.87-.02c-.16,.23-.13,.55-.23,.82Zm.18-3.35c-.18,.05-.32,0-.47,.05v.34l.05,.05,2.27-.12,.02-.25c-.16-.05-.31,0-.47-.05-.48,0-.95,.03-1.4-.02Zm-.55-4.43s.1,.02,.15,.05h.95l.03-.03,.03-.71-1.16-.06v.75Zm.05,2.37c-.08,.24,0,.55,0,.79l.32,.05,2.03-.02,.02-.8c-.79-.05-1.58-.07-2.37-.02Zm0-1.08l-.03,.79c.06,.05,.13,0,.19,.05l.89-.02,.03-.8c-.34-.08-.74-.02-1.08-.02Zm.03,2.16c-.11,.21,0,.47-.03,.72,0,.02,.08,.05,.1,.05l.98-.03c.08-.13,0-.37,.03-.55-.03-.06,0-.09-.03-.14-.32-.07-.69-.07-1.05-.05Zm-.06-7.17c-.05,.21-.08,.5-.02,.73h2.4l.02-.73h-2.4Zm.03,4.03c-.05,.08-.08,.61-.03,.71l1.08,.03h1.3l.02-.71-2.37-.03Zm-.03-3.03c-.08,.21-.05,.5-.02,.74l.02,.02h1.06c.13-.21,.02-.53,.02-.76h-1.08Zm0,1.03c-.08,.18-.02,.45-.02,.66l.29,.05,2.11-.03,.02-.66-2.4-.02Zm-.02-2.7l-.03,.32c0,.05,.13,0,.16,0l.95,.05,.02-.84h-1.13l.03,.47Zm-.03-3.39l-.05,.66s0,.02,.02,.05h.03l2.43-.03,.02-.68h-2.45Zm.42-18.23c-.13,.29-.16,.63-.26,.95l.68,.19s.03,0,.03-.03l.26-.93c-.18-.13-.47-.15-.71-.18Zm-.05,34.1c-.26,.72-.34,1.59-.58,2.33l.13,.13c.34-.21,.82-.53,.95-.95,.11-.5,.24-1,.34-1.51h-.84Zm2.08-13.97l-2.93,.03s-.02,.05-.02,.07c.16,.21,.24,.47,.37,.71h.03l2.53-.06,.02-.75Zm-3.14,9.22l.19,1.51s.05,.05,.08,.05l.23-.03c.06-.26,0-.55,.03-.84,0-.42-.03-.87,0-1.27-.03-.05-.08,0-.1,.03-.11,.21-.24,.42-.43,.55Zm.53,1.78l-.47,2.11v.02l.95-.06,.47-2.07s-.03,0-.03-.04l-.92,.04Zm-.79,3.42s.03,.06,.05,.06l.87-.06c.14-.29,.19-.71,.24-1.05l-.92,.02-.24,1.03Zm-.16-29.17l2.09,.4h.13l.16-.72c-.43-.02-.69-.16-1.06-.26-.45-.02-.76-.18-1.13-.23l-.19,.76v.05Zm-.13,30.18l.79,.65s0,0,.03-.02c.1-.42,.21-.87,.34-1.32l-.92-.03-.24,.72Zm-.05-16.38c.18,.24,.44,.45,.6,.71l.03,.02,1.77-.05c.05-.21,0-.44,0-.65-.74-.14-1.61,0-2.4-.03Zm-.32,13.53c.05,.1,.74,0,.82,0l.37-1.53s0-.03-.03-.03l-.82,.03-.34,1.53Zm1.48-31.5c-.11,.24-.16,.51-.21,.77l2.58,.55s.03,.05,.05,.03l.16-.71c-.81-.24-1.71-.48-2.58-.64Zm-1.72,32.63h.03l.76-.02,.27-.8c-.27-.08-.61,0-.87,0-.11,.24-.19,.55-.19,.82Zm-.32-10.52c.11,.18,.19,.29,.27,.44,.11,.43-.05,.82-.13,1.24h.08l.21-.31,.21-.64s.03-.02,.05-.05c.03-.03,.05-.08,.05-.11-.13-.26-.39-.34-.6-.5-.03,0-.05-.05-.08-.07h-.06Zm-.07-19.23l2.32,.44,.13-.49c-.29-.24-1.95-.45-2.32-.51l-.13,.56Zm.81,31.31l.32-1.27-.02-.03-.82,.03-.19,.79,.69,.5h.02v-.02Zm-.95-9.39c-.05,.07-.1,.07-.13,.13,.13,.1,.34,.05,.5,.13,.14,.02,.27,.05,.37,.05,0-.08-.07-.18-.1-.29-.13-.1-.24-.29-.19-.47l.06-.06s.02,0,.05,.03c.13,.21,.29,.42,.42,.71,.18-.21,.13-.61,.4-.76,.02,0,.08,.02,.08,.08l-.24,.68,.13-.02c.11,.02,.18,.1,.37,.1,.03,.05,.05,.05,.08,.11,.03,.02,.03,.1-.03,.16,0,.02-.02,.02-.02,.02-.11-.05-.22-.13-.37-.13-.03,0-.06-.03-.06-.03l-.13,.08,.03,.08c.18,.03,.24,.16,.37,.26,.13,.27,.39,.48,.34,.83-.03,.05-.05,.07-.08,.1-.08-.03-.1-.13-.1-.21-.14-.19-.22-.42-.4-.58-.05-.08-.13-.14-.19-.11,0,.03,.03,.03,.03,.05l.45,2.17c.29-.24,.42-.53,.55-.84-.05-1.04,.24-2.22-.23-3.12-.21-.37-.5-.82-.85-1.08-.08,.16-.13,.32-.21,.45-.26,.52-.58,1-.9,1.48Zm-.21-7.75c.21,.21,.61,.23,.77,.52,.11,.08,.24,.16,.32,.19,.37-.08,.79,.03,1.18-.03,0-.21,.06-.45,0-.66-.02-.05,0-.02-.02-.05l-2.25,.03Zm0,7.58s.08-.02,.11-.02l.21-.29-.27,.13-.07,.16s0,.02,.02,.02Zm-.07,1.54l.02,.53s.03,.02,.05,.02l.05,.11v-.03c.06-.08,.06-.24,.09-.34,.02-.08,.05-.13,.02-.19l-.21-.08s0,0-.02-.02Zm-.14-3.19s.03,.05,.05,.05l.03-.03s.03-.02,.06-.08c0,0-.03,0-.03-.02h-.06s-.02,.05-.05,.08Zm.53,10.33h-.55l.44,.32s.11-.26,.11-.32Zm-.48-33.81c-.02,.27-.16,.55-.07,.82l2.05,.37,.16,.03,.19-.77c-.03-.08-.19-.02-.27-.08-.68-.16-1.37-.29-2.06-.37Zm.19,30.52l-.45,2.01c.42,.02,.63,.05,1,.02h.03l.45-2.03s0,0-.03-.03l-1,.03Zm-.45-8.57l.03,.1h.05v-.08s-.03-.02-.08-.02Zm-.16,6.75l-.02,1.61h.02l.19-.03-.19-1.58Zm.08,4.14l-.18,.71s0,.03,.03,.06l.1,.05,.92-.11,.19-.74-1.06,.03Zm1.61-4.25c-.1,.45-.21,.9-.39,1.32v.03s.02,.05,.08,.05l.02,.08c-.02,.05-.02,.1,0,.19h.03l.97-.03c.03-.97-.26-1.96-.42-2.93,0-.03,.03-.03,.06-.05,.02-.03,.02-.08,.02-.1-.05-.06-.11-.04-.13-.04-.03,.14,0,.27-.08,.43,0,.37-.08,.71-.16,1.05ZM26.82,.92l-.1,.74,.79,.13h.13c.13-.18,.11-.47,.13-.68-.31-.11-.63-.14-.95-.19Zm-.07,5.83l-.11,.82c.66,.15,1.37,.21,2.06,.37h.05c.13-.16,.11-.39,.16-.58,0-.08,.05-.16,.05-.22l-.03-.02-2.18-.37Zm1.13,22.34c.19,.82-.11,1.71-.29,2.53,0,.16-.03,.38-.1,.48h-.06s-.1-.05-.1-.1l.18-.67c-.32-.44-.02-1.11-.32-1.58h-.02c-.08,.4-.03,.82-.05,1.24,.07,.79,.1,1.55,.26,2.32,.05,.11,.02,.21,.05,.29h.03l.42-.02c0-.14,.1-.3,.16-.46,.05-.33,.16-.65,.26-.97,.06-.1,.06-.21,.11-.32,.18-.63,.29-1.24,.24-1.9,.05-.13-.03-.23,.02-.34-.05-.13-.08-.23-.13-.32-.18-.13-.4-.1-.61-.18h-.05Zm-1.77,6.25l.13,.05,.72-.02c.18-.45,.26-1,.37-1.51-.24-.07-.56,0-.82,0-.21,.42-.29,.98-.4,1.48Zm-.13-7.17s0,.02,.03,.02h.07v-.02h-.1Zm-.05,7.94l-.06,.32,.74,.33s.03,0,.06-.02l.26-1.08c-.26-.08-.6-.03-.9-.03l-.1,.43v.05Zm-.24-7.47v.03s.11,.02,.16,.02c.02,0,.02-.02,.05-.02l.08-.03c-.08-.08-.21-.05-.29,0Zm.13-27.85c-.1,.13-.07,.34-.16,.53v.18c.16,.13,.45,.08,.67,.13h.12c.11-.21,.09-.47,.11-.71-.18-.13-.5-.08-.74-.13Zm-.21,5.56l1.98,.32h.08l.1-.55c-.65-.19-1.39-.21-2.08-.32h-.03l-.05,.55Zm.03-4.61l-.16,.97,1.85,.3h.07l.21-.93c-.6-.18-1.31-.26-1.97-.34Zm0,21.89h-.19l.2,.02v-.02Zm-.43,5.41l.02,2.48c.14,.1,.37,.02,.53,.1h.08c.08-.18-.08-.45-.08-.66-.18-.65-.32-1.29-.53-1.92h-.02Zm-.05-6.04c-.04,.13,0,.28,.07,.39,.19-.02,.42-.02,.56,.05,.05,.05,.16,.09,.16,.14l-.03,.6c.03,.08,.13,.03,.18,.05,.03,.03,.06,.06,.06,.09v.05c-.09,.1-.21,.02-.32,.05-.08,0-.08-.03-.1-.03-.09-.16,.02-.37-.06-.55h-.29l-.05-.08,.05-.11-.11-.02s-.02,.13-.05,.18c-.07,.42,.16,.77,.29,1.16,.06,.08,.08,.14,.13,.19l.11,.05,.21,.02,.47-.05c.06-.02,0-.07,.06-.13,0-.03,.03-.03,.05-.05,.08-.08,.21-.24,.37-.16l.08-.05c.11,0,.13-.14,.23-.14,.14-.1,.16-.21,.16-.36-.02-.11-.07-.22-.12-.29-.06-.19-.06-.35-.04-.53-.02-.05-.05-.08-.05-.1-.07,.28,.11,.65-.07,.92,0,.13-.03,.29-.14,.36h-.02c-.16-.33,.13-.7,0-1.02l-.08,.02c-.18-.16-.43-.02-.64-.07-.02,0-.05-.03-.05-.09,0-.05,.05-.1,.11-.1,.24-.08,.45-.02,.66,.03,.05-.16,0-.29-.05-.44-.4-.09-.8-.11-1.19-.06-.19-.05-.43,0-.55,.08Zm-.19,1.39l-.06,.32,.09,.13,.23,.13s.03,0,.03-.02l-.19-.53s-.05-.05-.1-.03Zm-.08,11.61c.13,.06,.82,.34,.85,.32l.02-.26-.87-.06Zm-.03-.21l.11,.06h.74c.21-.64,.34-1.32,.47-1.96l-.9,.03c-.18,.61-.31,1.26-.42,1.87Zm-.23-32.02c.74,.14,1.55,.19,2.32,.32h.05l.16-.8c-.79-.15-1.61-.28-2.4-.34-.13,.22-.08,.56-.13,.82Zm-.11,18.15l.53,.79v-.02c.34-.08,.66-.08,1-.11,.02,.03,.05,.03,.08,.03h.37l.1,.05,.48,.03c.19-.22,.29-.45,.4-.72l-.32,.08-.03,.03c-.02,.05-.02,.11,0,.16v.05c-.23,.13-.5-.1-.74-.03-.07-.02-.16-.02-.21-.05l-.05-.05,.1-.48-.16-.21-.15,.11-.16,.21c.08,.08,.16,.24,.13,.37-.18,.24-.55,.13-.84,.24-.05,0-.08-.03-.11-.08l.06-.22-.48-.18Zm-.24,10.2s-.02,.03-.02,.05c.1,.16,.37,.19,.6,.25,.26,0,.58-.09,.77-.27-.42-.05-.9,.05-1.35-.03Zm.05-25.66l-.07,.84c.6,.16,1.37,.14,2.03,.27h.08c.1-.21,.05-.5,.13-.74t.03-.08c-.74-.1-1.46-.24-2.2-.29Zm-.21,25.37l.14,.17,.39-.06c.19,0,.4,.02,.61,0h.34c.08,0,.26-.13,.11-.13-.24,0-1.38-.06-1.59,.02Zm.46-1.87c-.16,.58-.37,1.14-.53,1.72h.02l.84-.09c.14-.84,.03-1.74,.03-2.63-.15,.24-.24,.68-.36,1Zm7.51-20.52c-4.22-1.21-8.46-1.61-12.7-1.69h-.41c-.37,0-.74,.01-1.13,.03-1.21,0-2.42,.08-3.64,.18-1.42,.13-2.76,.29-4.16,.53s-2.8,.5-4.17,.9c-.03,.02,0,.05,0,.05h26.21Zm-8.23,25.9s.05,.05,.08,.05l.71-.02c.19-.42,.26-.95,.37-1.42l-.81,.02-.35,1.37Zm-.05,.42l.66,.19h.05l.11-.32h-.79l-.03,.03-.03,.08,.03,.02Zm-.16-8.52s.03,.06,.03,.06l.02-.03v-.03s0-.07-.05-.09c-.02,.02,0,.07,0,.09Zm.13-.26l.18,.29c0,.11,.06,.24,.11,.32,.03,.02,.05,.02,.05,.02h.85c.05-.02,.08-.13,.15-.16l.11,.03c.05,.11,.16,.24,.11,.37,0,.08-.08,.11-.11,.13l.16,.71s.03,0,.05-.02l-.07-.16s.05-.06,.07-.08c.21,0,.48,.02,.66,.16,.03,.03,.06,.08,.03,.13t-.03,.05c.06,.03,.11,.03,.13,.11,0,.05-.02,.1-.07,.1l-.19-.02s-.02-.03-.02-.06l-.3-.02s-.05,0-.02,.02c.53,.22,1.21,.22,1.58,.61,.18,.11,.32,.22,.5,.32v-.03c.08-.29-.02-.58-.16-.79-.23-.08-.42-.26-.6-.37-.24-.19-.42-.29-.66-.4,0,.03,.05,.06,.08,.11l-.03,.08c-.27,.02-.53-.16-.79-.11h-.11c-.05-.02-.07-.08-.07-.13,0-.02,.02-.08,.07-.08l.11-.05s.05-.1,.1-.1c.64-.16,1.06,.31,1.53,.55,.19-.13,.24-.34,.42-.5q0-.05,.03-.08c.27-.32,.43-.79,.45-1.24,0-.26-.08-.4-.21-.58-.08-.08-.11-.16-.16-.18-.05,.02-.08-.03-.11,0l.09,.39c-.03,.05-.03,.11-.03,.18-.03,.11-.06,.16-.08,.3-.13,.29-.24,.58-.53,.79-.05,.02-.08,.05-.1,.07l-.42,.24-.09-.05v-.05c.11-.16,.35-.19,.51-.35,.13-.07,.26-.23,.32-.36-.11,.02-.14,.18-.3,.18-.13,.13-.34,.11-.53,.18,0-.02-.02-.02-.05-.02-.16,.1-.23-.03-.37-.08-.05-.08-.16-.13-.18-.19,0-.05,.02-.1,.08-.1,.08-.03,.15,.05,.21,.13l.16,.08c.18-.05,.45,0,.55-.18,.27-.16,.45-.45,.53-.8,.02-.18,.02-.31-.03-.48-.05-.05-.07-.12-.07-.23,0,0-.04-.03-.06,0,0,.18-.16,.32-.13,.48l-.13,.07c-.03,.09-.08,.16-.19,.19-.07,.02-.16,.08-.23,.11-.06,0-.06,.02-.09,.02-.05,0-.07-.02-.07-.08-.03-.05,.02-.1,.07-.13,.22-.02,.37-.21,.48-.39,.05-.24,0-.48-.08-.69l.06-.11s-.03,0-.03-.03c-.08,.06-.16,.09-.18,.19v.02l-.3,.22c-.29-.03-.6,.03-.87-.11-.05-.02-.05-.05-.08-.05-.16,.11-.07,.32-.07,.47,.07,.19,.18,.3,.26,.46,.11,.18,.32,.1,.37,.28v.03s-.05,.08-.11,.11c-.18-.11-.42-.11-.55-.32-.03-.08-.08-.13-.11-.21-.05-.11-.05-.21-.11-.3-.18,.12-.1,.41-.12,.59,.07,.45,.31,.76,.6,1.03v.1c-.13,.03-.23-.1-.32-.15-.18-.24-.34-.48-.47-.74-.02-.08-.11-.19-.05-.27l.08-.05v-.24s0-.02-.03-.02c-.02,0-.08,0-.11-.05-.18,.32-.1,.73,0,1.08,.09,.07,.14,.13,.16,.23l-.02,.08s-.11,.03-.16,0c-.19-.1-.16-.31-.26-.45,0-.26-.06-.47,0-.73-.09,0-.16,.1-.21,.15,.02,.27-.06,.56,.1,.79,0,.08,0,.14-.03,.16-.02,.03-.05,.03-.07,.03-.14-.05-.16-.21-.19-.34-.02-.11,0-.19-.02-.29h-.06l-.16,.26Zm-.15,.45s0,.1,.02,.18h.13c.03-.08-.1-.13-.15-.18Zm-.11-.53s0,.08,.02,.11h.03s.02-.03,.06-.03c.05-.03,0-.03,0-.03l-.09-.05h-.02Zm-1.19-9.14c.42,.02,.9-.14,1.26,.05,.09,.02,.11,.07,.11,.16,.03,.12,0,.26,.03,.39,.48,.1,.97,.03,1.45,.03,.1-.11,0-.3,.05-.45,0-.08,.05-.16,.11-.22,.03,0,.05,0,.05-.02,.61,.16,1.3-.03,1.93,.11,.05,0,.13,.02,.13,.07,.08,.19-.03,.37,.08,.51l.74,.02,.92-.05v-.53c.24-.21,.63-.07,.95-.13,.42,.08,.87-.1,1.21,.08h.03c.08,.03,.1,.08,.1,.13-.02,.16-.02,.29,.03,.43,.34,.07,.69,.02,1.06,.02l.02-8.18-26.85-.03-.02,8.68,4.4-.44,.45-.69s.05-.03,.1-.05c.22,.16,.3,.47,.51,.65,1-.12,2.13-.1,3.06-.39,.05-.03,.08-.05,.1-.1,.08-.05,.11-.19,.11-.3,0-.12,.08-.26,.08-.39l-.34-.05c-.03-.27,.15-.53,.07-.82l-.47,.05-.37,.11c-.08,0-.11-.06-.13-.13,0-.24-.05-.51,.02-.72,.06-.02,.11-.05,.16-.05,.24,.05,.45,.05,.66,.13h.03c.08-.29-.11-.61-.08-.89,.02-.08,.08-.11,.16-.14,.23,.03,.47,0,.66,.08l-.03,.9c.24,.08,.45-.24,.66-.13,.03,0,.05,.03,.05,.03,.06,0,.08,.05,.11,.07v.63c-.24,.19-.53-.02-.79,0-.11,.27,.21,.61,.05,.88l-.24,.02v.72l.08,.05,1.82,3.22c.05-.53,0-1.06,.03-1.64-.03-.19-.03-.34-.03-.56-.02-.02-.08-.02-.1-.05-.06,0-.06-.05-.08-.1,.1-.32,.32-.55,.42-.9,.11-.11,.16-.18,.29-.16,.24,.21,.29,.45,.5,.63,.27,1.27,.08,2.59,.16,3.86l.02,2.23v.03l.06,.11v.02s.05,0,.05,0c.08,.03,.14,.1,.14,.21,.02,.05-.03,.08-.03,.14l.13-.25s.02,0,.05,.04l.16,.42c.06,.1,0,.26,.03,.39-.06,.21-.03,.43-.11,.63-.05,.27-.08,.48-.18,.72-.32,.42-.27,1-.27,1.5,0,1.2,0,2.4,.02,3.61,0,.65,.03,1.3,.06,1.96,.16,.4,.14,.94,.32,1.42,.22,.05,.47,.05,.73,.05,.14,.01,.27,.01,.41,.03l.86-.03c.44-1.07,.35-2.18,.32-3.29-.01-.36-.02-.73,0-1.09v-3.08c-.37-.11-.71-.03-1.08-.06-.03,0-.05,0-.08,.03-.02,.06-.06,.08-.06,.16,.48,1.27,.77,2.74,1.16,4.04-.26,.34-.63,.53-1.07,.58-.16-.02-.31-.02-.46-.04-.1-.02-.2-.04-.28-.1-.16-.1-.37-.18-.48-.34-.1-.03-.18-.1-.24-.24,.09-.42,.21-.79,.32-1.21,.25-.75,.45-1.61,.68-2.39,.01-.04,.02-.08,.04-.12,.02-.13,.07-.28-.03-.39-.03-.13,.05-.21,.1-.32,.05-.02,.11-.02,.16,0l.14,.08,1.12,.03c.09-.13,.06-.32,.06-.5,0-.16-.02-.27,0-.42-.02-.72,0-1.4-.02-2.12,.02-.95,0-1.91,.02-2.87-.06-.44,0-.89-.06-1.28,.06-.25-.05-.51,.06-.69,0-.3,.21-.48,.37-.63l.24-.19,.32-.06c.1-.33-.06-.76,.07-1.1,.21-.08,.53,.03,.76-.02Zm.35,3.85c.31,.05,.6-.06,.86,.05,.42-.32,.82-.53,1.32-.77-.1-.08-.32,.03-.47-.02-.66,.05-1.29,0-1.92,.05v.6c.05,.09,.15,.03,.21,.09Zm12-15.52c-5.02-1.6-10.08-2.32-15.14-2.4-.19-.01-.37-.01-.56-.02-.34,0-.68-.01-1.02-.01-.74,0-1.43,.03-2.17,.11-1.92,.08-3.82,.4-5.75,.69-2.39,.45-4.75,.94-7.12,1.71-.26,.13-.55,.24-.82,.37l.11,.16c1.77-.45,3.59-1.08,5.4-1.45,.41-.11,.8-.16,1.22-.27,3.39-.68,6.76-.93,10.15-.92,.28,0,.55-.01,.83,0,3.5,.03,6.95,.5,10.41,1.22,1.03,.28,2.11,.52,3.16,.79,.88,.23,1.72,.55,2.53,.84l.22-.26c-.45-.21-.98-.35-1.45-.56Zm-10.21-3.16c-.74-.14-1.51-.16-2.27-.22l-.05,.85,2.08,.21h.1c.14-.24,.09-.58,.14-.84Zm-1,16.3c-.53-.08-1.11,0-1.64-.05-.12,.18,.06,.47-.1,.69-.29,.1-.6,0-.92,.05-.03,.16-.05,.34-.03,.53,.4,.17,.84,.05,1.29,.12l10.5-.05,.02-.74c-.42-.07-.89,.03-1.32-.07l-.05-.53c-.55-.05-1.08,0-1.66-.05l-.13,.63s-.03,.07-.08,.07c-.32,.04-.66-.02-1,0-.38-.02-.77,.06-1.08-.1l-.06-.5c-.5-.16-1.11-.05-1.66-.08-.08,.1-.03,.31-.03,.47v.06c0,.08-.05,.15-.13,.19-.6,0-1.32,.07-1.87-.11-.1-.16-.05-.35-.05-.53Zm-.24-13.67l-.06,.56c.67,.02,1.35,.08,2.01,.21h.1c.14-.13,.09-.37,.11-.53-.69-.15-1.45-.18-2.16-.24Zm6.2,33.37c-2.22-2-5.41-3.17-8.78-3.24-.35,.02-.63-.06-.95,0-.05-.03-.26-.06-.31-.03l-.41-.02-.84-.04c-.13,.09-.26,0-.39,.03-.77,.03-1.51,.06-2.25,.22-.6,.1-1.21,.28-1.84,.47-.4,.16-.82,.34-1.25,.5-.42,.19-.84,.42-1.23,.68-.74,.45-1.46,.98-2.11,1.59-.14,.05-.14,.08-.16,.15,2.69,1.46,5.62,2.78,8.28,4.28,.63,.35,1.2,.81,1.79,1.36,.08,.08,.16,.15,.25,.23l.02-.03c2.79-2.77,7.07-3.7,10.57-5.65,.03-.03,.06-.03,.06-.03-.11-.21-.29-.34-.45-.47Zm-5.99-20.89c-.53-.07-1.08,0-1.61-.05-.1,.26-.02,.61-.05,.89,.6,.16,1.32-.12,1.9,.11l.05,.56s.02,.05,.05,.05h1.4c.08-.19-.02-.45,.16-.58,.58-.26,1.26,0,1.89-.14,.11,0,.19,.06,.25,.14,.02,.18,0,.34,.02,.5,.53,.1,1.14,.03,1.69,0l.03-.02,.02-.48s.05-.08,.11-.1c.5-.09,1-.04,1.5-.06,.21,0,.48-.05,.61,.08,.11,.13-.03,.34,.08,.5h1.03l.02-.74-1.29-.08s-.08-.05-.08-.13c0-.15,0-.31-.03-.47-.52-.11-1.1-.03-1.68-.05-.03,.02-.06,.1-.03,.15,.03,.18,0,.34-.08,.5-.61,.14-1.24,0-1.87,.05-.14-.02-.21-.07-.3-.12l-.05-.48c-.52-.13-1.11-.03-1.66-.08l-.05,.56c-.05,.1-.19,.1-.24,.15-.55-.03-1.08-.1-1.58-.05l-.18-.16-.03-.45Zm.63-11.58c-.63-.13-1.34-.16-2-.18-.05,.26-.03,.55-.05,.81,0,.03,.02,.05,.02,.05l1.85,.16h.05c.13-.23,.08-.58,.13-.84Zm-.9,27.54c-.23,.47-.28,1.05-.42,1.55l.72,.14h.07l.09-.25s-.04-.02-.04-.05c.14-.44,.25-.92,.32-1.42l-.74,.03ZM18.99,5.13c3.92-.03,7.84,.29,11.74,1.22,.55,.11,1.08,.27,1.61,.4,1.05,.27,2.06,.53,3.04,.9h.07c.16-.14,.29-.35,.37-.53-.95-.4-2.03-.68-3.01-.95-4.01-1.08-7.96-1.71-11.94-1.89-.63-.04-1.25-.02-1.88,0-.35,.01-.7,.02-1.05,.02-.76,0-1.45,.03-2.19,.05-1.79,.11-3.59,.29-5.35,.58-2.25,.4-4.49,.87-6.73,1.58-.42,.16-.87,.35-1.27,.48l.4,.61c2.19-.67,4.46-1.21,6.67-1.62,2.59-.47,5.12-.7,7.68-.81,.61-.02,1.23-.04,1.84-.04ZM22.95,.16c.13,.76-.14,1.58,0,2.32l2.18,.23s.06-.02,.06-.02c.21-.77,.08-1.61,.42-2.3,.82,.14,1.82,.14,2.56,.48-.08,.74-.29,1.5-.31,2.24l2.1,.4c.27-.72,.27-1.61,.56-2.25,.63,.03,1.24,.29,1.9,.4l.58,.18c.11,.74-.4,1.56-.4,2.33,0,0,.03,0,.05,.02,.74,.19,1.48,.51,2.2,.61,.28-.66,.55-1.42,.95-2.06,.92,.21,1.92,.66,2.79,1.01,.02,.07-.03,.16-.05,.21-1.42,1.84-2.64,3.76-4.01,5.64-.29,.13-.68-.19-1-.16v22.66c-.05,1.45,.13,2.92-.16,4.38-1.45,4.4-6.6,5.17-10.21,7.2-1.55,.66-2.9,1.76-3.9,3.08h-.08s-.03,0-.03-.02c-.05-.08-.1-.16-.16-.23-1.09-1.5-2.63-2.42-4.21-3.12-2.06-1.03-4.12-2.03-6.17-3.03-1.78-1.12-3.12-2.72-3.6-4.94-.47-2.79-.13-5.64-.23-8.47l-.03-17.4c-.29,.02-.61,.13-.89,.18-.53-.32-.67-.9-.98-1.32C1.93,6.86,.82,5.35,0,3.75c.35-.27,.84-.37,1.3-.58,.58-.22,1.18-.48,1.79-.61,.13,.05,.13,.15,.18,.26,.14,.47,.35,.95,.48,1.46,.05,.1,.08,.21,.13,.28l1.82-.5c-.1-.74-.42-1.45-.47-2.16,.84-.32,1.79-.5,2.66-.69,.4,.61,.31,1.43,.56,2.11,.02,.06,.05,.08,.07,.08l1.32-.23,.72-.14c-.03-.71-.32-1.48-.32-2.24,.07-.08,.21-.08,.34-.11,.79-.13,1.56-.26,2.35-.31,.37,.63,.16,1.61,.45,2.29l1.92-.21-.05-2.32c.92-.03,1.85-.16,2.72-.08,.08,.77,0,1.56,.11,2.3h2.18c.11-.53,.05-1.14,.05-1.72,.06-.18-.02-.42,.11-.61,.84-.05,1.71,0,2.53,.14Zm-.26,22.42l.63-.71-1.69,.02s-.02,.03-.02,.05v.58c.29,.09,.6-.02,.92,.03,.05,0,.1,0,.16,.03Zm.26,1.58c.23,.47,.26,1.05,.37,1.58l-.05,.07s.07,.06,.1,.12c.02,.13,.06,.23,.08,.36,.05,.16,.13,.27,.19,.37,0,0,.02,.03,.05,.03l.1-.08c.13-.27,.34-.42,.53-.61,.27-.26,.69-.47,.87-.77l.05-.05-.29-.07c-.1-.03-.1-.14-.18-.21-.08-.27,.03-.53,.05-.77,.16-.39,.03-.79,.1-1.18t-.02-.06l-.61-.86-.07-.27c0-.08,.07-.15,.12-.18,.3,.1,.61,.24,.83,.39,.02,.06,0,.08,.02,.13l.45-.02s-.05-.08-.05-.14l-.06-.15,.37-.55,.18-.09c.22,.11,.25,.37,.43,.51,.03,.05,.03,.07,.05,.1,0,.06-.05,.11-.11,.11v.13l.43,.1,.03-.13c.18-.21,.55-.18,.79-.36,.02,0,.07,.02,.1,.07-.05,.37-.31,.69-.47,1.06-.03,.05-.05,.08-.09,.13,.14,.26,.27,.55,.22,.87,0,.28,.26,.44,.15,.73-.02,.08-.02,.13-.05,.18-.07,.06-.13,.14-.21,.22-.07,0-.13,.05-.16,.1v.05c.11,.09,.24,.16,.27,.32,.21,.11,.42,.16,.58,.29,.42,.27,.79,.69,1.16,.98,.29,.34,.45,.71,.74,1.08v-.03c0-1.13,0-2.24-.05-3.37-.08-.18,0-.34-.14-.53-.02-.21-.15-.39-.23-.6-.24-.55-.69-1.03-1.14-1.48-.18-.16-1.05-.5-1.26-.6-.16,0-.37-.11-.53-.11-.16-.08-.29-.03-.45,0l-.16-.05h-.08c-.31,.11-.63,.08-.95,.26-.24,.07-.46,.16-.67,.28-.68,.39-1.23,1-1.65,1.65-.1,.26-.31,.47-.31,.75,.02,.03,.1,.09,.16,.06,.18,0,.37,.05,.47,.24Zm.18,2c-.23,.42-.26,.98-.28,1.45v.03l.49-.03c.03-.47-.1-.95-.21-1.45Zm-.07-.55c0-.27-.14-.53-.14-.82-.05-.21-.07-.37-.16-.56l-.16-.07c-.07,.1,.11,.21,.14,.31,0,.13-.14,.32-.05,.45,.02,.03,.07,.05,.07,.1,0,.06-.02,.09-.07,.09h-.03c-.11-.03-.18-.16-.22-.3v-.05c-.12-.07-.26-.23-.31-.37-.02-.02-.02,.03-.02,.03l.15,.29c.03,.05,.11,.1,.13,.19,0,.02-.02,.05-.05,.07-.16-.02-.23-.18-.31-.32l.18,.4-.05,.08v.05s.07,.09,.16,.11c.07,0,.16,.05,.18,.13,.13,.16,.16,.37,.24,.58,.05,.06,.07,.16,.11,.24,.1-.13,.12-.24,.15-.43v-.07l.02-.11s.04,0,.04-.02Zm-.27,2.4c.02,.84,.16,1.66,.27,2.51,0,.02-.04,.02-.04,0-.02,.05,.04,.07,.04,.07,.05,.21,.05,.37,.12,.58,.03,.37,.21,.74,.3,1.11,.16,.26,.16,.63,.39,.84,0,.06,.03,.06,.05,.09l-.02,.1s-.03,.02-.05,.02c-.09,0-.16-.07-.21-.15-.19-.45-.46-.92-.56-1.45-.27-1.24-.58-2.46-.55-3.67v-.05c-.05-.03-.09-.05-.09-.08-.02-.03-.07-.03-.1-.03-.08,.42,.05,.9,0,1.32,.14,.42,.08,.82,.14,1.25,.05,.33,.15,.7,.21,1.05l.02,.02c.05,.08,.05,.19,.03,.27,.05,.21,.05,.5,.11,.71,.02,.08,.05,.11,.07,.13,0,0-.01,.03-.02,.03,0,.16,.05,.29,.05,.44,0,.14,.11,.25,.16,.4l.1,.24,3.51-.13c.03-.53,.13-1.09,.05-1.63,.05-.46-.05-.85,.08-1.3,0-.23,.11-.48,.03-.69,0-.05-.03-.1,0-.16,.03,0,.03-.02,.08-.02v-.24c-.19-.16-.51-.16-.74-.32-.24-.05-.53-.02-.69-.21t-.03-.05c.11,.9,.58,1.88,.67,2.8l.02,.1c-.02,.11-.13,.14-.18,.21-.35,.35-.88,.61-1.42,.48-.09-.06-.16-.06-.25-.08-.18-.08-.28-.19-.42-.32-.07-.15-.21-.26-.16-.42,.37-1.24,.9-2.48,1.09-3.69,.02-.08,.05-.11,.02-.13l-1.13-.06,.11,.69c.07,.37,.21,.74,.28,1.05,.03,.11,.09,.19,.03,.27-.03,0-.05,.02-.08,.02-.18-.18-.21-.45-.32-.68-.05-.45-.18-.9-.31-1.32l-.6-.03c-.06,0-.09,.06-.06,.11Z"/><path d="M22.34,41.07v-.03c.05-.1,.16-.18,.24-.21,.05,.13-.1,.21-.16,.29h-.03v.03l-.05-.08Z"/><path d="M13.98,24.84l.43-.05s.02,.08,0,.11l-.35,.07s-.08-.02-.1-.05c0-.02,0-.05,.02-.08Z"/><path d="M15.01,20.81s-.1,.06-.1,.11l.37,.13s.16-.05,.18-.08l-.02-.08s-.11-.11-.19-.13l-.24,.05Zm-.18,.37c.03,.16,.13,.29,.29,.4,.03,0,.05,.03,.08,.03h.03c.05-.06,.02-.16-.03-.19-.08-.13-.13-.16-.24-.22-.03,0-.08-.02-.13-.02Zm0-.73s-.05,.12-.03,.12c.13,0,.27-.02,.35-.1,.05-.08,.08-.13,.08-.18,0-.01,.01-.02,.02-.03-.13,.05-.37,.03-.42,.19Zm-.32,.89c-.1,.16-.1,.27-.1,.5l.1,.08s.06-.03,.06-.05c.05-.21,.07-.35-.03-.51,0,0,0-.02-.03-.02Zm-.13-.95s.03,.06,.03,.06l.07,.07,.11-.02c.11-.11,.03-.35-.02-.51h-.03c-.11,.09-.16,.21-.16,.4Zm0,.45v.21l.08,.08,.11-.03s.02-.21,.02-.26c-.05,.05-.18-.06-.21,0Zm-.55-.61c-.06,.06-.03,.16,0,.22,.1,.12,.18,.21,.31,.28l.03-.02c.05-.09,.05-.19,0-.26-.08-.14-.19-.19-.32-.25l-.02,.03Zm-.11,1.29s0,.03,.03,.06h.02l.29-.08,.14-.3c-.22,0-.27,.06-.37,.19-.03,.03-.11,.13-.11,.13Zm-.18-.74s-.03,.03-.06,.06v.05l.21,.14,.42-.06c-.02-.05-.07-.1-.1-.1-.16-.03-.29-.11-.47-.09Zm-.06,.35c-.1-.03-.13-.08-.21-.16-.05-.08,0-.21,.03-.26,.08-.05,.13-.11,.26-.14,.11-.16,.03-.37,.13-.53,.06-.05,.16-.02,.24,0,.11,.04,.21,.04,.29,.04l.08-.16s.13-.19,.13-.21c.14-.06,.19,.07,.27,.12l.1,.3c.13,.05,.27-.09,.37-.11l.27,.11c.1,.13-.03,.28-.03,.39l.18,.24,.11,.29c-.03,.05-.08,.1-.13,.1-.03,0-.06,0-.08,.03v.08l-.08,.13s0,.06,.03,.08c0,.14,0,.29-.14,.32-.15,.08-.29-.06-.39-.08-.03,.02-.03,.11-.05,.11-.06,0-.06,.02-.06,.05-.05,.05-.08,.1-.13,.18s-.13,.11-.21,.11h-.03l-.21-.32-.21-.13c-.11,.05-.18,.08-.29,.05-.1,0-.18-.05-.21-.13-.05-.13,.08-.24,.08-.34l-.11-.16Z"/><path d="M15.85,38.98c-.06,.11-.12,.18-.16,.25-.03,.03-.05,.06-.07,.09-.05,.07-.09,.14-.14,.26l-.09-.03c.08-.19,.15-.28,.23-.38,.05-.07,.11-.14,.17-.26h.02s.08-.05,.08-.05c.16-.07,.49-.21,.83-.31,.08-.02,.15-.02,.23-.04,.01,0,.02,0,.03-.01,.07,0,.15-.04,.22-.04v.09c-.31,.01-.7,.16-.99,.27-.11,.05-.21,.09-.28,.12-.01,0-.02,.01-.03,.01-.01,0-.03,.02-.05,.03Z"/><path d="M16.12,40.12c.03-.06,.11-.08,.16-.14,.16-.1,.34-.26,.53-.23,.02,.02,.02,.08,0,.1-.24,.08-.43,.21-.64,.35l-.05-.08Z"/><path d="M20.93,39.45s-.04-.1,0-.1h.05c.21,.05,.44,.16,.55,.32-.13,.26-.32,.5-.53,.76l.21,.16,.05,.09s-.02,.02-.05,.05h-.02l-.24-.17-.02-.07,.02-.06-.06-.1c.16-.24,.4-.35,.46-.61-.09-.18-.27-.18-.42-.27Z"/><path d="M17.2,39.88c-.02-.05-.07-.13-.02-.18,.02,0,.07,0,.07,.02l.45,.58v.06s.03,.05,.03,.07c.03,.06,0,.11-.03,.13l-.29,.12h-.02l-.03-.09s.03-.03,.05-.03l.24-.15c-.16-.19-.29-.35-.45-.53Z"/><path d="M26.35,23.76s-.05-.11,.03-.13h.32s.02,.02,.05,.02c.02,0,.02,.03,.02,.05,0,.04-.02,.06-.02,.06t-.03,.03l-.21,.02-.16-.05Z"/><path d="M20.68,41.59l.09-.18s.02-.03,.05-.03c.02,0,.05,.03,.05,.06v.03c-.03,.07-.05,.15-.13,.18h-.06v-.06Z"/><path d="M16.46,40.2l.21-.19c.06,0,.11-.03,.14,.03,.02,.02,0,.05,0,.08l-.16,.08s-.03,.02-.03,.05l-.08,.05h-.05s-.03-.05-.03-.05v-.05Z"/><path d="M21.14,39.85l-.25-.13s0-.05,0-.08c.14-.05,.21,.08,.3,.11,0,.02,.02,.05,0,.08,0,0-.03,.02-.05,.02Z"/><path d="M19.24,41.8l-.03-.15,.05-.21s.05-.03,.08-.03l.02,.08-.02,.31h-.1Z"/><path d="M20.71,40.99s-.05-.11-.03-.16c.06,0,.11,.03,.16,.05,.09,.08,.16,.13,.24,.16v.16s-.05,.02-.05,.02c-.1-.07-.21-.13-.32-.23Z"/><path d="M18.73,38.51s.03-.03,.03-.03h.32s.05,.03,.05,.05l-.03,.03-.11,.03-.12,.02c-.05-.02-.11-.02-.14-.08v-.02Z"/><path d="M19.15,38.27l.03-.03s.11-.05,.13,0l.03,.27h-.03l-.16-.24Z"/><path d="M19.42,38.56s.03-.03,.05-.03l.4-.02s0,.05,0,.05l-.4,.05-.05-.05Z"/><path d="M22.29,40.25l-.42-.29s-.03-.11,0-.13h.03c.18,.1,.33,.15,.47,.34,0,.03,0,.05-.03,.08h-.05Z"/><path d="M22,40.38l-.26-.18c0-.05,0-.08,.03-.08h.05c.08,.05,.23,.08,.26,.18v.08h-.08Z"/><path d="M19.52,39.11s0-.07,.03-.07l.76-.03v.03s0,.07-.02,.07l-.24,.06,.05,.07s-.02,.06-.02,.06l-.21,.05h-.03l-.05-.05,.03-.08s.02-.03,.02-.03l.1-.02s.04-.03,0-.03l-.42-.03Z"/><path d="M19.58,41.44c0-.06,0-.08,.03-.08l.07-.05s.05,.02,.05,.05v.23c0,.09-.05,.14-.1,.16l-.02-.02-.03-.05v-.24Z"/><path d="M17.94,38.48c-.05,.5,.03,.97,.08,1.48,.06,.5,.18,1.05,.48,1.4h.02c.03-.29,0-.58,.11-.87,.03-.03,.1,0,.13,.02l.02,.29c.07,.01,.14,.01,.21,.01,.29-.01,.59-.07,.83,.07,0,.03,.02,.06,.02,.06-.02,.05-.05,.07-.13,.1-.22-.14-.48-.04-.72-.05h-.07c-.08,0-.1,.02-.16,0-.1,.18,.02,.39-.03,.6,0,.06,0,.11,.03,.14l.11,.05,.02-.47s.03,0,.05-.03l.03,.03s.02,.05,.02,.07c.05,.14,.08,.29,.04,.42v.04l.12,.07c.32,0,.67-.05,.88-.29l.02-.24c.05-.07,.11-.18,.16-.26,.24-.34,.31-.82,.4-1.24,.07-.53,.16-1.03,.05-1.5-.05-.08-.08-.24-.19-.27-.44-.21-.97-.33-1.48-.3-.13,0-.26,.01-.39,.04-.1,.03-.21,.05-.31,.1-.16,.11-.3,.29-.35,.53Zm-2.79,.79c-.03,.27-.14,.5-.03,.77,.05,.32,.18,.69,.39,.87,.03,.03,.06,.05,.11,.05l.29,.19c-.03-.06-.05-.08-.08-.14,0-.05,.03-.07,.08-.1l.55,.42-.02,.08s.02,.03,.05,.06c.08-.03,.18-.09,.27,0,.23,.15,.44,.31,.79,.37,.26,0,.58-.06,.76-.27,.05,0,.11,.02,.11,.08,0,.03,0,.08,.03,.13h.05s0-.05,.02-.08c-.18-.21-.34-.42-.44-.71-.09-.05-.19,0-.25,.05-.07,.11-.18,.16-.28,.16-.03,0-.06-.05-.08-.08l.45-.32s.05,.03,.07,0l-.21-1.24h-.02c-.08,.03-.16,.14-.27,.08-.02-.03,0-.1,0-.13,.08-.08,.16-.11,.24-.16,.03-.21,.05-.53-.03-.76-.08-.08-.13-.16-.21-.19l-.05-.05c-.47-.26-1.21-.11-1.61,.16-.32,.13-.53,.47-.68,.76Zm8.06,.06c.39,.65-.21,1.26-.42,1.84l-.19,.27c-.1,.1-.28,.15-.47,.13-.26,.34-.62,.53-1.08,.69-.28,.12-.49-.09-.76-.09l-.19-.12c-.1,.05-.21,.15-.42,.21-.18,.02-.37,.07-.58,.07h-.05s-.04-.01-.06-.02c-.22-.09-.51-.18-.7-.32l-.27,.13c-.37,.08-.74-.07-1.11-.13-.18-.08-.42-.13-.5-.34-.42-.24-.95-.4-1.24-.9-.24-.47-.34-1.05-.16-1.58,.22-.4,.61-.71,1-.93,.27-.1,.67-.22,.88-.16,.2-.05,.35,.02,.47,.06,.14,.04,.25,.13,.37,.3,.03-.03,.05-.2,.03-.22,.13-.27,.34-.42,.63-.53,.2-.05,.4-.08,.6-.1,.53-.03,1.06,.05,1.53,.29l.41,.44c.49-.21,1.1,0,1.55,.21,.23,.16,.49,.29,.65,.53,.03,.08,.03,.18,.08,.27Zm-.58-.35c.32,.21,.48,.74,.39,1.14,.04,.05,.04,.1,.04,.13,.12-.16,.07-.42,.05-.64,0-.05,0-.07-.03-.1-.02-.16-.23-.24-.18-.42v-.03c-.42-.4-1.16-.76-1.85-.58-.02,.03-.05,.03-.07,.03-.09,.05-.11,.15-.11,.26,0,.98-.19,2.03-.68,2.82l.02,.09c.1,.1,.26,.16,.4,.28,.18,.09,.37-.02,.49,.09h.04l.18-.19,.71-.55c.08-.09,.2-.06,.34-.09,.05,0,.07,.03,.11,.03,.26-.16,.26-.52,.47-.76-.03-.03-.05,.05-.08,.05-.02,0-.06-.03-.06-.05,.09-.34,.11-.74-.05-1.06-.02-.03-.1-.03-.1-.1l-.03-.09c-.15-.13-.4-.2-.58-.31-.37-.11-.68-.21-1.02-.13-.03,0-.03-.03-.05-.03,0-.02-.03-.02-.03-.05,0-.08,.05-.11,.1-.13,.56-.11,1.13,.16,1.58,.39Z"/><path d="M18.23,39.04s.03,0,.03-.03h.79l.03,.16s-.03,.02-.03,.02c0,0-.04-.01-.06-.01-.05-.02-.11-.03-.15-.01v.07s-.06,.06-.08,.09h-.29l-.02-.09s.02-.07,0-.07c-.06-.06-.16,0-.22-.06-.03-.02,0-.05,0-.07Z"/><path d="M20.45,41.49l.13-.21s.05,.03,.05,.03c0,.02,.03,.05,.03,.05-.05,.08-.08,.16-.16,.18h-.03s-.02-.05-.02-.05Z"/><path d="M17.2,39.4s0-.05,.05-.07c.14-.09,.27-.24,.43-.19,.02,.03,.02,.08,0,.1l-.43,.21h-.02l-.03-.05Z"/><path d="M22.69,41.54c.33,0,.63-.16,.89-.29,.5-.31,.85-.79,1.01-1.4,.15-.68-.06-1.47-.53-1.92-1.44-.98-3.28-1.22-5.07-1.14-.66,.03-1.32,.09-1.95,.19-1.03,.26-2.16,.47-2.69,1.21-.24,.27-.42,.61-.42,1-.08,.58,.11,1.27,.48,1.64,.05,.08,.1,.13,.16,.18,.34,.3,.76,.43,1.21,.56,.16,.02,.26,.11,.34,.21l.19,.13c.47,.26,1.18,.63,1.74,.35,0-.06,.03-.11,.08-.11h.1c.08,.02,.11,.13,.22,.16,.12,.16,.33,.16,.47,.29,.02,.01,.05,.01,.07,.02,.09,.02,.17,.02,.27,.06,.32,0,.61-.19,.84-.4,.16,0,.27,.08,.37,.19,.27,.02,.56,.05,.82-.03,.45-.06,.69-.37,.97-.64,.08-.15,.27-.21,.43-.26Zm.97-.07c-.23,.1-.55,.33-.81,.21-.16,.1-.37,.05-.48,.23-.24,.24-.44,.45-.74,.61-.23,.08-.47,.1-.74,.18-.23-.02-.49,.03-.68-.18-.32,.05-.6,.37-1.03,.34-.06-.03-.12-.03-.19-.04-.1-.01-.2-.02-.28-.12-.21-.08-.35-.21-.53-.34-.4,.24-.9,.18-1.35,0-.26-.08-.45-.21-.68-.29l-.29-.23s-.06-.04-.06-.04c0-.02-.02-.05-.05-.07-.21,0-.42-.05-.63-.14-.64-.23-1.16-.79-1.37-1.47-.16-.67,.05-1.46,.26-1.93,.16-.21,.21-.39,.47-.5,.49-.52,2.67-.98,4.51-1.09,.48-.03,.93-.04,1.32-.02,.48,.03,.9,.08,1.37,.18,.92,.17,1.85,.43,2.45,.96,.56,.5,.82,1.29,.69,2.08-.13,.74-.55,1.29-1.16,1.67Z"/><path d="M25.64,24.79l.13-.16,.61-.03,.07,.21s-.02,.06-.05,.06h-.05s-.05-.03-.02-.03l-.43-.08s-.05,.05-.08,.05c-.07,.03-.16,.03-.18-.02Z"/><path d="M19.05,40.2c-.08-.29,.05-.66,.05-.96h.05c.11,.3-.05,.67,0,.96l.4,.02s.03,.03,.03,.03c-.03,.05-.03,.08-.06,.08l-.39,.03s-.05-.03-.08-.06v-.1Z"/></svg>
